
        <svg xmlns="http://www.w3.org/2000/svg" xmlns:xlink="http://www.w3.org/1999/xlink" version="1.1" width="3162.1110478539827" 
        height="871.4127503598729" viewBox="0 0 3162.1110478539827 871.4127503598729">
			
			<g transform="scale(8.10555239269914) translate(10, 10)">
				<defs id="SvgjsDefs1186"></defs><g id="SvgjsG1187" featureKey="HKaMnE-0" transform="matrix(0.9681747771106556,0,0,0.9681747771106556,2.0329298515765597,2.3453242941160113)" fill="#d72323"><path xmlns="http://www.w3.org/2000/svg" d="M89.8225098,49.1332397H76.5374756c-0.1359863,0-0.2669678,0.0180054-0.3939819,0.0469971  c-3.4959717,0.4879761-4.8469849,7.3359985-5.3649902,12.7999878H49.1655273  c-0.519043-5.4639893-1.8690186-12.3120117-5.3650513-12.7999878c-0.1269531-0.0289917-0.2579956-0.0469971-0.3939819-0.0469971  H30.1224976c-5.9099731,0-6.0800171,17.4269409-6.0800171,19.414978c0,1.9860229,0.1700439,19.4140015,6.0800171,19.4140015  h13.2839966c0.1359863,0,0.2670288-0.0200195,0.3939819-0.0490112c3.4960327-0.4860229,4.8470459-7.3359985,5.3650513-12.7999878  h21.6129761c0.5189819,5.4639893,1.8690186,12.3129883,5.3649902,12.7999878  c0.1270142,0.0289917,0.2579956,0.0490112,0.3939819,0.0490112h13.2850342c5.9099731,0,6.0800171-17.4279785,6.0800171-19.4140015  C95.9025269,66.5612183,95.7324829,49.1332397,89.8225098,49.1332397z M39.59552,84.4031982h-8.2640381  c-0.9729614-0.8959961-2.730957-6.3540039-2.730957-15.8549805c0-9.5020142,1.7589722-14.9609985,2.730957-15.8549805H39.59552  c-2.1820068,5.2069702-2.2700195,14.440979-2.2700195,15.8549805C37.3255005,69.9642334,37.4135132,79.1972046,39.59552,84.4031982z   M77.1334839,70.5571899H42.8115234c-0.1620483-0.2999878-0.4640503-0.1129761-0.4640503-2.0089722  s0.302002-1.7089844,0.4640503-2.0100098h34.3219604c0.1620483,0.3010254,0.4639893,0.1129761,0.4639893,2.0100098  C77.5975342,70.4442139,77.2955322,70.2572021,77.1334839,70.5571899z M88.6135254,84.4031982h-8.2640381  c2.1820068-5.2059937,2.2709961-14.4389648,2.2709961-15.8549805c0-1.4140015-0.0889893-10.6480103-2.2709961-15.8549805h8.2640381  c0.9729614,0.8939819,2.730957,6.3529663,2.730957,15.8549805S89.5855103,83.5072021,88.6135254,84.4031982z M16.0325928,73.2259521  c-3.8959351-3.8959961-6.0415649-9.0759277-6.0415649-14.5857544c0-8.6219482,5.5661011-14.2971802,7.0608521-15.5319824  c3.852478-3.1826782,8.5228271-5.0952759,13.5664673-5.0952759c5.026001,0,9.7124634,1.8625488,13.5269165,5.0611572  c1.6434326,1.3780518,7.1003418,5.961853,7.1003418,15.5661011c0,0.3612671-0.0340576,0.7165527-0.0523071,1.074707h5.2648315  c0.0145264-0.3572388,0.0261841-0.7150269,0.0261841-1.074707c0-5.2131958-1.5333862-10.1898804-4.3842163-14.4181519  c2.9568481-4.2981567,5.0390625-9.3878784,5.0390625-15.2258911c0-11.6514893-13.7949829-16.958374-26.6116333-16.958374  c-12.7296143,0-26.4300537,5.3068848-26.4300537,16.958374c0,5.8748779,2.0678711,10.973999,5.0089722,15.2688599  c-2.8319702,4.21875-4.3540649,9.1799316-4.3540649,14.3751831c0,6.9099121,2.6904907,13.4053955,7.5762329,18.2902222  c1.6810913,1.6811523,5.6459961,2.8076172,10.3900146,3.3865356l-0.7994995-5.4118042  C18.4348145,74.3907471,16.4945068,73.65271,16.0325928,73.2259521z M30.5275269,19.0227051  c9.5142822,0,19.62677,3.4954224,19.62677,9.9734497c0,3.6068115-1.1453247,6.9050903-2.8979492,9.8443604  c-4.6532593-3.9238892-10.4793701-6.0662842-16.6380005-6.0662842c-6.1708374,0-12.0079346,2.1513672-16.6659546,6.0906982  c-1.7363281-2.9367676-2.8699951-6.2403564-2.8699951-9.8687744C11.0823975,24.0401001,17.7615967,19.0227051,30.5275269,19.0227051  z"></path></g><g id="SvgjsG1188" featureKey="J3GnXt-0" transform="matrix(3.2109762674899063,0,0,3.2109762674899063,106.88075768452556,12.4038499929108)" fill="#111111"><path d="M5.88 5.48 c1.84 0 3.2 0.54006 4.08 1.6201 l-1.56 1.42 c-0.24 -0.37334 -0.58 -0.67334 -1.02 -0.9 s-0.94666 -0.34 -1.52 -0.34 c-0.82666 0 -1.49 0.20334 -1.99 0.61 s-0.75 0.93 -0.75 1.57 c0 1.0667 0.70666 1.8133 2.12 2.24 l1.78 0.58 c1 0.32 1.7633 0.76666 2.29 1.34 s0.79 1.36 0.79 2.36 c0 1.3067 -0.46334 2.3634 -1.39 3.17 s-2.1034 1.21 -3.53 1.21 c-2.04 0 -3.5466 -0.65334 -4.52 -1.96 l1.58 -1.36 c0.30666 0.48 0.72666 0.85334 1.26 1.12 s1.1133 0.4 1.74 0.4 c0.78666 0 1.4533 -0.22666 2 -0.68 s0.82 -1.0133 0.82 -1.68 c0 -0.49334 -0.16666 -0.90668 -0.5 -1.24 s-0.93334 -0.63334 -1.8 -0.9 l-1.26 -0.42 c-1.2667 -0.42666 -2.1534 -0.97 -2.66 -1.63 s-0.76 -1.51 -0.76 -2.55 c0 -1.1067 0.44666 -2.0466 1.34 -2.82 s2.0466 -1.16 3.46 -1.16 z M18.020000000000003 5.84 c1.3733 0 2.4566 0.34 3.25 1.02 s1.19 1.66 1.19 2.94 c0 1.24 -0.39334 2.21 -1.18 2.91 s-1.8733 1.05 -3.26 1.05 l-3.16 0 l0 6.24 l-1.92 0 l0 -14.16 l5.08 0 z M17.46 12.08 c1 0 1.7433 -0.18336 2.23 -0.55002 s0.73 -0.94332 0.73 -1.73 c0 -1.52 -0.98666 -2.28 -2.96 -2.28 l-2.6 0 l0 4.56 l2.6 0 z M26.72 5.84 l0 14.16 l-1.92 0 l0 -14.16 l1.92 0 z M35.44 5.84 c1.3867 0 2.4734 0.34666 3.26 1.04 s1.18 1.6667 1.18 2.92 c0 0.94666 -0.32334 1.7733 -0.97 2.48 s-1.4767 1.1267 -2.49 1.26 l-0.02 0 l4.02 6.46 l-2.4 0 l-3.6 -6.24 l-2.14 0 l0 6.24 l-1.92 0 l0 -14.16 l5.08 0 z M34.879999999999995 12.08 c1 0 1.7433 -0.18336 2.23 -0.55002 s0.73 -0.94332 0.73 -1.73 c0 -1.52 -0.98666 -2.28 -2.96 -2.28 l-2.6 0 l0 4.56 l2.6 0 z M44.5 5.84 l0 14.16 l-1.92 0 l0 -14.16 l1.92 0 z M57.58 5.84 l0 1.8 l-4.56 0 l0 12.36 l-1.92 0 l0 -12.36 l-4.56 0 l0 -1.8 l11.04 0 z M61.279999999999994 5.84 l0 8.74 c0 1.16 0.32334 2.1134 0.97 2.86 s1.51 1.12 2.59 1.12 s1.9433 -0.37334 2.59 -1.12 s0.97 -1.7 0.97 -2.86 l0 -8.74 l1.92 0 l0 9.06 c0 0.97334 -0.23 1.8833 -0.69 2.73 s-1.1133 1.5133 -1.96 2 s-1.79 0.73 -2.83 0.73 c-1.6 0 -2.9134 -0.52334 -3.94 -1.57 s-1.54 -2.3434 -1.54 -3.89 l0 -9.06 l1.92 0 z M77.75999999999999 5.48 c1.84 0 3.2 0.54006 4.08 1.6201 l-1.56 1.42 c-0.24 -0.37334 -0.58 -0.67334 -1.02 -0.9 s-0.94666 -0.34 -1.52 -0.34 c-0.82666 0 -1.49 0.20334 -1.99 0.61 s-0.75 0.93 -0.75 1.57 c0 1.0667 0.70666 1.8133 2.12 2.24 l1.78 0.58 c1 0.32 1.7633 0.76666 2.29 1.34 s0.79 1.36 0.79 2.36 c0 1.3067 -0.46334 2.3634 -1.39 3.17 s-2.1034 1.21 -3.53 1.21 c-2.04 0 -3.5466 -0.65334 -4.52 -1.96 l1.58 -1.36 c0.30666 0.48 0.72666 0.85334 1.26 1.12 s1.1133 0.4 1.74 0.4 c0.78666 0 1.4533 -0.22666 2 -0.68 s0.82 -1.0133 0.82 -1.68 c0 -0.49334 -0.16666 -0.90668 -0.5 -1.24 s-0.93334 -0.63334 -1.8 -0.9 l-1.26 -0.42 c-1.2667 -0.42666 -2.1534 -0.97 -2.66 -1.63 s-0.76 -1.51 -0.76 -2.55 c0 -1.1067 0.44666 -2.0466 1.34 -2.82 s2.0466 -1.16 3.46 -1.16 z"></path></g>
			</g>
		</svg>
	